<svg xmlns="http://www.w3.org/2000/svg" xml:space="preserve" viewBox="0 0 24 24">
  <path d="M6.667 18.667h6.666q.567 0 .95-.384.384-.383.384-.95a1.3 1.3 0 0 0-.384-.95 1.3 1.3 0 0 0-.95-.383H6.667a1.3 1.3 0 0 0-.95.383 1.3 1.3 0 0 0-.384.95q0 .567.384.95.383.384.95.384m0-5.334h10.666q.567 0 .95-.383a1.3 1.3 0 0 0 .384-.95 1.3 1.3 0 0 0-.384-.95 1.3 1.3 0 0 0-.95-.383H6.667q-.567 0-.95.383a1.3 1.3 0 0 0-.384.95q0 .566.384.95.383.383.95.383m0-5.333h10.666q.567 0 .95-.383a1.3 1.3 0 0 0 .384-.95q0-.567-.384-.95a1.3 1.3 0 0 0-.95-.384H6.667q-.567 0-.95.384a1.3 1.3 0 0 0-.384.95q0 .566.384.95Q6.1 8 6.667 8m-4 16a2.57 2.57 0 0 1-1.884-.783A2.57 2.57 0 0 1 0 21.333V2.667q0-1.1.783-1.884A2.57 2.57 0 0 1 2.667 0h18.666a2.57 2.57 0 0 1 1.884.783A2.57 2.57 0 0 1 24 2.667v18.666a2.57 2.57 0 0 1-.783 1.884 2.57 2.57 0 0 1-1.884.783z" fill="#fff" />
</svg>