<svg xmlns="http://www.w3.org/2000/svg" xml:space="preserve" viewBox="0 0 24 24">
  <path d="M12 17.225c0-.127-.049.016-.154.325-.567 1.671-2.781 8.192-7.846 2.979-2.667-2.745-1.432-5.49 3.422-6.319-2.777.474-5.899-.309-6.755-3.381C.42 9.946 0 4.504 0 3.769 0 .087 3.217 1.244 5.202 2.74 7.954 4.812 10.913 9.014 12 11.269c1.087-2.256 4.046-6.457 6.797-8.529C20.783 1.244 24 .087 24 3.769c0 .735-.42 6.177-.667 7.06-.856 3.072-3.978 3.855-6.755 3.381 4.854.829 6.089 3.574 3.422 6.319-5.065 5.213-7.279-1.308-7.846-2.979-.105-.309-.154-.452-.154-.326" fill="#fff" />
</svg>