<svg xmlns="http://www.w3.org/2000/svg" width="24" height="24">
  <path fill="#fff" d="M3.4 24q-.99 0-1.695-.705A2.3 2.3 0 0 1 1 21.6V4.8q0-.99.705-1.695A2.3 2.3 0 0 1 3.4 2.4h1.2V1.2q0-.51.345-.855T5.8 0t.855.345T7 1.2v1.2h9.6V1.2q0-.51.345-.855T17.8 0t.855.345T19 1.2v1.2h1.2q.99 0 1.695.705T22.6 4.8v16.8q0 .99-.705 1.695T20.2 24zm0-2.4h16.8v-12H3.4zm8.4-7.2q-.51 0-.855-.345a1.16 1.16 0 0 1-.345-.855q0-.51.345-.855T11.8 12t.855.345.345.855-.345.855-.855.345m-4.8 0q-.51 0-.855-.345A1.16 1.16 0 0 1 5.8 13.2q0-.51.345-.855T7 12t.855.345.345.855-.345.855T7 14.4m9.6 0q-.51 0-.855-.345a1.16 1.16 0 0 1-.345-.855q0-.51.345-.855T16.6 12t.855.345.345.855-.345.855-.855.345m-4.8 4.8q-.51 0-.855-.345A1.16 1.16 0 0 1 10.6 18q0-.51.345-.855t.855-.345.855.345T13 18t-.345.855-.855.345m-4.8 0q-.51 0-.855-.345A1.16 1.16 0 0 1 5.8 18q0-.51.345-.855T7 16.8t.855.345T8.2 18t-.345.855T7 19.2m9.6 0q-.51 0-.855-.345A1.16 1.16 0 0 1 15.4 18q0-.51.345-.855t.855-.345.855.345.345.855-.345.855-.855.345" />
</svg>