<svg xmlns="http://www.w3.org/2000/svg" xml:space="preserve" viewBox="0 0 24 24">
  <path d="M16.146 15.526c.847-.903 2.031-1.354 3.272-1.185.282 0 .564 0 .847.057-.113.282-.226.564-.395.789l-1.241 2.088a6.25 6.25 0 0 1-5.416 3.102h-2.426a6.25 6.25 0 0 1-5.416-3.102L4.13 15.131a6.22 6.22 0 0 1 0-6.262l1.241-2.087a6.26 6.26 0 0 1 5.416-3.103h2.426a6.26 6.26 0 0 1 5.416 3.103l1.241 2.087c.169.226.282.508.395.79-.283.056-.565.056-.847.056-1.241.057-2.425-.395-3.272-1.297a4.87 4.87 0 0 0-3.497-1.523h-1.016a4.44 4.44 0 0 0-3.159 1.297c-.79.846-1.241 1.918-1.241 3.103v1.41c-.056 1.129.395 2.2 1.185 3.047.846.846 2.031 1.297 3.215 1.297h1.072c1.298 0 2.539-.564 3.441-1.523m-3.497-7.334c2.82 0 2.595 2.821 6.656 2.821.395 0 .79-.057 1.185-.113a6.8 6.8 0 0 1 0 2.144c-.395-.057-.79-.113-1.185-.113-4.174 0-3.948 2.821-6.713 2.821h-1.241c-1.636 0-2.99-1.411-2.933-3.047v-1.636a3.06 3.06 0 0 1 3.159-2.877zm10.323 5.867c.508.339.677.959.508 1.467-1.184 3.836-4.175 6.77-7.954 7.954C9.208 25.398 2.438 21.844.52 15.526S2.156 2.494 8.474.52c6.319-1.918 13.032 1.636 15.006 7.954.226.508.057 1.128-.451 1.41-.733.452-1.58.79-2.426.903a4.5 4.5 0 0 0-.338-1.241c.733-.113 1.41-.338 1.974-.79a10.91 10.91 0 0 0-7.108-7.108C9.433-.044 3.453 3.058 1.705 8.756-.044 14.454 3.058 20.49 8.756 22.183s11.678-1.467 13.427-7.108a4.7 4.7 0 0 0-1.975-.79c.169-.395.282-.846.339-1.241a6.2 6.2 0 0 1 2.425 1.015" fill="#fff" />
</svg>