<svg xmlns="http://www.w3.org/2000/svg" width="24" height="24">
  <path fill="#fff" d="M20.317 4.366a19.8 19.8 0 0 0-4.885-1.515.074.074 0 0 0-.079.037c-.21.376-.444.865-.608 1.25a18.3 18.3 0 0 0-5.487 0 13 13 0 0 0-.617-1.25.08.08 0 0 0-.079-.037 19.7 19.7 0 0 0-4.885 1.515.07.07 0 0 0-.032.028C.533 9.042-.32 13.577.099 18.054a.08.08 0 0 0 .031.056 19.9 19.9 0 0 0 5.993 3.03.08.08 0 0 0 .084-.028 14 14 0 0 0 1.226-1.994.077.077 0 0 0-.041-.106 13 13 0 0 1-1.872-.892.077.077 0 0 1-.008-.128q.19-.142.372-.291a.07.07 0 0 1 .078-.01c3.927 1.793 8.18 1.793 12.061 0a.07.07 0 0 1 .079.01q.18.148.372.291c.044.033.04.1-.006.128q-.895.523-1.873.892a.077.077 0 0 0-.041.106c.36.698.772 1.363 1.225 1.993a.08.08 0 0 0 .084.029 19.8 19.8 0 0 0 6.002-3.03.08.08 0 0 0 .032-.055c.5-5.177-.838-9.674-3.549-13.66a.06.06 0 0 0-.031-.029M8.02 15.328c-1.182 0-2.157-1.086-2.157-2.42 0-1.332.956-2.418 2.157-2.418 1.21 0 2.176 1.095 2.157 2.419 0 1.333-.956 2.419-2.157 2.419m7.975 0c-1.183 0-2.157-1.086-2.157-2.42 0-1.332.955-2.418 2.157-2.418 1.21 0 2.176 1.095 2.157 2.419 0 1.333-.946 2.419-2.157 2.419" />
</svg>