<svg xmlns="http://www.w3.org/2000/svg" xml:space="preserve" viewBox="0 0 24 24">
  <g transform="matrix(1.01621,0,0,1,-0.389018,0)">
    <rect x="0.383" y="0" width="23.617" height="24" fill="rgb(0,97,254);" />
  </g>
  <g transform="matrix(0.8,0,0,0.8,0,2)">
    <path d="M7.701,9.506L0.479,4.913L7.701,0.32L14.924,4.913L7.701,9.506ZM14.924,4.913L22.147,0.32L29.369,4.913L22.147,9.506L14.924,4.913ZM22.147,9.506L29.369,14.099L22.147,18.693L14.924,14.099L22.147,9.506ZM14.924,14.099L7.701,18.693L0.479,14.099L7.701,9.506L14.924,14.099ZM14.924,24.816L7.701,20.223L14.924,15.63L22.147,20.223L14.924,24.816Z" fill="rgb(247,245,242);" />
  </g>
</svg>