<svg xmlns="http://www.w3.org/2000/svg" xml:space="preserve" viewBox="0 0 24 24">
  <path d="M12 0C5.376 0 0 5.376 0 12s5.376 12 12 12h6v-2.4h-6c-5.208 0-9.6-4.392-9.6-9.6S6.792 2.4 12 2.4s9.6 4.392 9.6 9.6v1.716c0 .948-.852 1.884-1.8 1.884s-1.8-.936-1.8-1.884V12c0-3.312-2.688-6-6-6s-6 2.688-6 6 2.688 6 6 6a5.97 5.97 0 0 0 4.248-1.764C17.028 17.304 18.372 18 19.8 18c2.364 0 4.2-1.92 4.2-4.284V12c0-6.624-5.376-12-12-12m0 15.6A3.595 3.595 0 0 1 8.4 12c0-1.992 1.608-3.6 3.6-3.6s3.6 1.608 3.6 3.6-1.608 3.6-3.6 3.6" fill="#fff" />
</svg>