<svg xmlns="http://www.w3.org/2000/svg" xml:space="preserve" viewBox="0 0 24 24">
  <path d="m1.464 19.656 1.059 1.829c.22.384.536.687.907.907l3.78-6.543H-.35c0 .426.11.852.33 1.237z" fill="#0066da" />
  <path d="M11.65 8.151 7.87 1.608c-.371.22-.687.522-.907.907L-.02 14.612c-.216.376-.33.803-.33 1.237h7.56z" fill="#00ac47" />
  <path d="M19.87 22.392c.371-.22.687-.523.907-.907l.44-.756 2.103-3.643c.22-.385.33-.811.33-1.237h-7.56l1.608 3.161z" fill="#ea4335" />
  <path d="m11.65 8.151 3.78-6.543a2.4 2.4 0 0 0-1.237-.33H9.107c-.44 0-.866.124-1.237.33z" fill="#00832d" />
  <path d="M16.09 15.849H7.21l-3.78 6.543c.371.22.797.33 1.237.33h13.966c.44 0 .866-.124 1.237-.33z" fill="#2684fc" />
  <path d="m19.829 8.563-3.492-6.048a2.5 2.5 0 0 0-.907-.907l-3.78 6.543 4.44 7.698h7.546c0-.426-.11-.853-.33-1.237z" fill="#ffba00" />
</svg>