<svg xmlns="http://www.w3.org/2000/svg" xml:space="preserve" viewBox="0 0 24 24">
  <path d="M22.286 0H1.709C.766 0 0 .777 0 1.73v20.54C0 23.223.766 24 1.709 24h20.577c.943 0 1.714-.777 1.714-1.73V1.73C24 .777 23.229 0 22.286 0" fill="#0a66c2" />
  <path d="M7.259 20.571H3.696V9.118h3.563zm13.328 0H17.03V15c0-1.329-.026-3.037-1.848-3.037-1.853 0-2.137 1.446-2.137 2.941v5.667H9.488V9.118H12.9v1.564h.048c.477-.9 1.64-1.848 3.37-1.848 3.6 0 4.269 2.373 4.269 5.459z" fill="#fff" />
  <circle cx="5.476" cy="5.491" r="2.062" fill="#fff" />
</svg>