<svg xmlns="http://www.w3.org/2000/svg" xml:space="preserve" viewBox="0 0 24 24">
  <path d="M23.172 5.313c.189 1.916.025 5.033.024 5.545 0 .151-.022 1.525-.03 1.67-.234 3.685-2.531 5.14-4.946 5.604q-.05.013-.109.024c-1.531.299-3.17.378-4.726.422-.372.01-.743.01-1.115.01-1.547 0-3.089-.183-4.592-.546h-.025l-.022.01-.014.02-.005.024c.043.489.149.971.317 1.433.208.534.936 1.818 3.641 1.818 1.573.003 3.14-.18 4.669-.545h.023l.022.01.015.018.005.023v1.809a.05.05 0 0 1-.023.043c-.499.363-1.179.569-1.759.753q-.384.121-.778.213a13.2 13.2 0 0 1-7.194-.38c-2.164-.759-4.372-2.62-4.918-4.856a26.5 26.5 0 0 1-.614-3.681c-.17-1.866-.184-3.737-.257-5.611-.052-1.307-.022-2.731.254-4.016C1.589 2.518 3.954.692 6.544.309 6.994.242 7.84 0 11.786 0h.03c3.945 0 5.648.242 6.098.309 2.664.393 4.911 2.426 5.258 5.004m-3.825 2.898q.001-1.965-1-3.12c-.692-.769-1.596-1.164-2.718-1.164-1.297 0-2.279.499-2.934 1.498l-.632 1.06-.632-1.06c-.655-.999-1.637-1.498-2.936-1.498-1.123 0-2.027.395-2.717 1.164q-1.002 1.156-1.002 3.12v6.406h2.537V8.399c0-1.309.551-1.976 1.654-1.976 1.22 0 1.832.789 1.832 2.349v3.404h2.524V8.772c0-1.56.611-2.349 1.83-2.349 1.11 0 1.655.667 1.655 1.976v6.218h2.539z" fill="#fff" />
</svg>