<svg xmlns="http://www.w3.org/2000/svg" xml:space="preserve" viewBox="0 0 24 24">
  <path d="M23.172 5.313C22.825 2.735 20.578.702 17.914.309 17.464.242 15.761 0 11.816 0h-.03C7.84 0 6.994.242 6.544.309c-2.59.383-4.955 2.209-5.529 4.818C.739 6.412.709 7.836.761 9.143c.073 1.874.087 3.745.257 5.611.118 1.24.323 2.47.614 3.681.546 2.236 2.754 4.097 4.918 4.856a13.2 13.2 0 0 0 7.194.38q.394-.091.778-.213c.58-.184 1.26-.39 1.759-.753a.05.05 0 0 0 .023-.043v-1.809l-.005-.023a.1.1 0 0 0-.015-.018q-.01-.006-.022-.01h-.023a20 20 0 0 1-4.669.545c-2.705 0-3.433-1.284-3.641-1.818a5.6 5.6 0 0 1-.317-1.433.1.1 0 0 1 .005-.024l.014-.02q.01-.007.022-.01h.025c1.503.363 3.045.546 4.592.546.372 0 .743 0 1.115-.01 1.556-.044 3.195-.123 4.726-.422a1 1 0 0 0 .109-.024c2.415-.464 4.712-1.919 4.946-5.604.008-.145.03-1.519.03-1.67.001-.512.165-3.629-.024-5.545" fill="url(#a)" />
  <path d="M19.347 8.211v6.406h-2.539V8.399c0-1.309-.545-1.976-1.655-1.976-1.219 0-1.83.789-1.83 2.349v3.404h-2.524V8.772c0-1.56-.612-2.349-1.832-2.349-1.103 0-1.654.667-1.654 1.976v6.218H4.776V8.211q0-1.963 1.002-3.12c.69-.769 1.594-1.164 2.717-1.164 1.299 0 2.281.499 2.936 1.498l.632 1.06.632-1.06c.655-.999 1.637-1.498 2.934-1.498 1.122 0 2.026.395 2.718 1.164q1.001 1.155 1 3.12" fill="#fff" />
  <defs>
    <linearGradient id="a" x1="0" x2="1" y1="0" y2="0" gradientTransform="rotate(90 6 6)scale(24)" gradientUnits="userSpaceOnUse">
      <stop offset="0" style="stop-color:#6364ff;stop-opacity:1" />
      <stop offset="1" style="stop-color:#563acc;stop-opacity:1" />
    </linearGradient>
  </defs>
</svg>