<svg xmlns="http://www.w3.org/2000/svg" xml:space="preserve" viewBox="0 0 24 24">
  <path d="M16.042 14.098c-.991-1.104-1.969-2.338-2.85-3.448-.416-.524-.813-1.025-1.185-1.479l-.027-.033c.544-1.551.855-2.82.925-3.773.176-2.428-.095-3.992-.828-4.781A1.83 1.83 0 0 0 10.137.1c-.501.168-1.18.619-1.568 1.808-.578 1.772-.298 4.911 1.346 7.507-.734 1.921-1.756 4.129-2.886 6.231-2.151.754-3.866 1.745-5.096 2.948C.325 20.163-.329 21.721.139 22.867c.288.71.954 1.133 1.782 1.133.576 0 1.199-.208 1.802-.601 1.522-.995 3.51-4.311 4.576-6.233 2.206-.688 4.384-.97 5.491-1.077.501-.049.998-.087 1.477-.114 1.937 2.046 3.522 3.125 4.981 3.394q.443.082.875.082c1.19 0 2.173-.474 2.631-1.269.346-.6.34-1.301-.019-1.922-.81-1.402-3.254-2.174-6.883-2.174q-.391 0-.81.012M2.713 21.856c-.288.188-.584.3-.793.3a.4.4 0 0 1-.082-.008c-.036-.183.095-.978 1.382-2.236.605-.591 1.369-1.13 2.275-1.607-1.143 1.838-2.171 3.152-2.782 3.551M10.32 2.48c.135-.411.301-.597.405-.632l.007-.002c.1.113.525.757.335 3.387-.034.458-.145 1.038-.333 1.727-.615-1.584-.784-3.344-.414-4.48m3.292 11.775c-.98.095-2.474.289-4.14.683a58 58 0 0 0 1.744-3.809l.531.668c.603.759 1.28 1.614 1.982 2.448zm8.525 2.927c.028.048.027.066.02.079-.077.134-.427.348-1.037.348q-.256 0-.538-.052c-.76-.141-1.647-.667-2.704-1.604 2.868.137 4.027.828 4.259 1.229" fill="#fff" />
</svg>