<svg xmlns="http://www.w3.org/2000/svg" xml:space="preserve" viewBox="0 0 24 24">
  <path d="M2.835 24a2.73 2.73 0 0 1-2.002-.833A2.73 2.73 0 0 1 0 21.165q0-1.17.833-2.002a2.73 2.73 0 0 1 2.002-.833q1.17 0 2.002.833.833.832.833 2.002t-.833 2.002A2.73 2.73 0 0 1 2.835 24m19.102 0a2.04 2.04 0 0 1-1.471-.602 2.42 2.42 0 0 1-.726-1.489 18.9 18.9 0 0 0-1.861-6.521 20.3 20.3 0 0 0-3.863-5.404 20.3 20.3 0 0 0-5.404-3.863A19 19 0 0 0 2.091 4.26a2.38 2.38 0 0 1-1.489-.744A2.14 2.14 0 0 1 0 1.992q0-.886.62-1.47.62-.585 1.471-.514 4.359.354 8.187 2.197a24.5 24.5 0 0 1 6.751 4.766 24.5 24.5 0 0 1 4.766 6.752q1.843 3.827 2.198 8.186a1.8 1.8 0 0 1-.532 1.471q-.603.62-1.524.62m-8.505 0q-.816 0-1.471-.585t-.833-1.506q-.638-3.437-3.119-5.918-2.48-2.481-5.918-3.119a2.58 2.58 0 0 1-1.506-.85A2.26 2.26 0 0 1 0 10.498q0-.922.638-1.489t1.453-.46q5.245.708 8.948 4.412t4.413 8.948q.106.816-.496 1.453-.603.638-1.524.638" fill="#fff" />
</svg>