<svg xmlns="http://www.w3.org/2000/svg" xml:space="preserve" viewBox="0 0 24 24">
  <path d="M24 7.525 12 .814v22.372h12z" fill="#4aa7d5" />
  <path d="M0 7.525 12 .814v22.372H0z" fill="#fd9804" />
  <path d="M.508 11.112 2.099 7.67l1.765 2.093-1.739 3.457zM8.023 4.671l2.533 2.314-2.51 4.398-2.296-2.45zM2.132 16.196l1.763 2.406-1.774 3.083-1.618-2.499zM8.023 14.838l2.484 2.911-2.47 3.659-2.273-3zM14.041 4.851l2.365 1.082 4.411 9.52.734-1.036.008 2.871 1.33 2.371-.813 1.303-1.605-2.572-1.684-.152.942-1.153-5.712-8.952z" fill="#fff" />
</svg>