<svg xmlns="http://www.w3.org/2000/svg" width="24" height="24">
  <path fill="#fff" d="M18.895 22.514c-.626.68-2.301 1.486-4.483 1.486-5.56 0-6.766-4.163-6.766-6.59v-6.75H5.46a.466.466 0 0 1-.46-.47V7.004c0-.337.207-.637.52-.75C8.374 5.231 9.271 2.691 9.4.764 9.437.248 9.7 0 10.141 0h3.263c.253 0 .46.21.46.469v5.4h3.82a.46.46 0 0 1 .46.464v3.83a.466.466 0 0 1-.46.468h-3.838v6.244c0 1.603 1.09 2.512 3.13 1.678.22-.089.414-.15.584-.103.161.042.267.16.34.37l1.013 3.014c.083.235.152.497-.018.68" />
</svg>