<svg xmlns="http://www.w3.org/2000/svg" xml:space="preserve" viewBox="0 0 24 24">
  <path d="M23.954 4.382a9.8 9.8 0 0 1-2.825.794 5.06 5.06 0 0 0 2.163-2.792 10 10 0 0 1-3.127 1.214A4.85 4.85 0 0 0 16.574 2c-2.717 0-4.92 2.259-4.92 5.041q.002.6.127 1.153C7.691 7.996 4.066 5.982 1.64 2.938a5.04 5.04 0 0 0-.666 2.538c0 1.753.87 3.294 2.188 4.199a4.8 4.8 0 0 1-2.228-.631v.062c0 2.445 1.693 4.485 3.946 4.949a4.9 4.9 0 0 1-2.212.087c.631 2.003 2.445 3.463 4.604 3.504A9.72 9.72 0 0 1 0 19.735 13.75 13.75 0 0 0 7.557 22c9.054 0 13.999-7.685 13.999-14.339 0-.215 0-.431-.015-.646.961-.707 1.8-1.6 2.46-2.613z" fill="#fff" />
</svg>